# xmcd
#
# Track frame offsets:
#	150
#	12616
#	24827
#	45577
#	62577
#	76019
#	90693
#	105709
#	126165
#	141326
#	155061
#	175453
#	192044
#	206599
#
# Disc length: 2949 seconds
#
# Revision: 0
# Processed by: cddbd v1.5.2PL0 Copyright (c) Steve Scherf et al.
# Submitted via: EasyCDDAExtractor 11.1.0.1
#
DISCID=b80b830e
DTITLE=Various Artist - Mr Music Country
DYEAR=2009
DGENRE=Country
TTITLE0=Rick Stancil - The grass ain't always greener
TTITLE1=Dale Watson - Me Freddie and Jack
TTITLE2=Mack and Dyan - If I'm not alreaady crazy
TTITLE3=Richie Allbright - Make-up and blue jeans
TTITLE4=Shane Worley - Single again
TTITLE5=Darrell McCall - Wall of pictures
TTITLE6=Liz Talley - Johnny getting out of jail barbeque
TTITLE7=Jason Michael Carroll - Where I'm  from
TTITLE8=Kendel Carson and Chip Taylor - Jesse James
TTITLE9=Jonas Otter - Brand new start
TTITLE10=The Pear Ratz - Bottom of the bottle
TTITLE11=Roy Crawford - Let's cross the bridge
TTITLE12=Anita Perras - Little devil
TTITLE13=L.M.Stone - It will come back to you
EXTD=
EXTT0=
EXTT1=
EXTT2=
EXTT3=
EXTT4=
EXTT5=
EXTT6=
EXTT7=
EXTT8=
EXTT9=
EXTT10=
EXTT11=
EXTT12=
EXTT13=
PLAYORDER=
